# xmcd
#
# Track frame offsets:
#	150
#	9376
#	19876
#	33023
#	44328
#	57312
#	68807
#	87437
#	101144
#	116834
#
# Disc length: 1705 seconds
#
# Revision: 2
# Processed by: cddbd v1.5.2PL0 Copyright (c) Steve Scherf et al.
# Submitted via: audiograbber 1.83.01
#
DISCID=7f06a70a
DTITLE=Various Artist - Colden Hits Collection 60's and 70's Vol.2
DYEAR=1900
DGENRE=Oldies
TTITLE0=Ray Charles - Hit the road jack
TTITLE1=The Isley Brothers - Shout Part 1
TTITLE2=Bee Gees - Spicks and specks
TTITLE3=The Zombies - She's not there
TTITLE4=Dinah Washington - Mad about the boy
TTITLE5=John Lee Hooker - Boom Boom
TTITLE6=Eric Burdon - We gotta get out of this place
TTITLE7=Ben E. King - Stand by me
TTITLE8=Tommy James And The Shondells - Crimson and clover
TTITLE9=The New Seekers - I'd like to teach the world to sing
EXTD=
EXTT0=
EXTT1=
EXTT2=
EXTT3=
EXTT4=
EXTT5=
EXTT6=
EXTT7=
EXTT8=
EXTT9=
PLAYORDER=
